<?xml version="1.0" encoding="UTF-8"?>
<svg width="146px" height="32px" viewBox="0 0 146 32" version="1.1" xmlns="http://www.w3.org/2000/svg" xmlns:xlink="http://www.w3.org/1999/xlink">
    <!-- Generator: Sketch 44.1 (41455) - http://www.bohemiancoding.com/sketch -->
    <title>Logo_API Copy 2</title>
    <desc>Created with Sketch.</desc>
    <defs>
        <polygon id="path-1" points="9.62867215 0.0212883886 9.62867215 18.861216 0.0202202115 18.861216 0.0202202115 0.0212883886 9.62867215 0.0212883886"></polygon>
        <polygon id="path-3" points="31.9623852 32 0 32 0 8e-06 31.9623852 8e-06"></polygon>
    </defs>
    <g id="Symbols" stroke="none" stroke-width="1" fill="none" fill-rule="evenodd">
        <g id="Logo_API-Copy-2">
            <path d="M108.7359,26 L114.7348,8.05349973 L119.1022,8.05349973 L125.0258,26 L121.562,26 L120.1313,21.5572999 L113.279,21.5572999 L111.8734,26 L108.7359,26 Z M116.7177,10.7893998 L114.0571,19.1225999 L119.3532,19.1225999 L116.7177,10.7893998 Z M127,26 L127,8.05349973 L132.773,8.05349973 C136.789,8.05349973 139.4245,9.83559975 139.4245,13.6005998 L139.4245,13.7009998 C139.4245,17.4910999 136.6886,19.1727999 132.8483,19.1727999 L129.994629,19.1727999 L129.994629,26 L127,26 Z M129.984619,16.7631999 L132.5347,16.7631999 C134.7435,16.7631999 135.9232,15.6838998 135.9232,13.7009998 L135.9232,13.6005998 C135.9232,11.4670998 134.6682,10.6387998 132.5347,10.6387998 L129.984619,10.6387998 L129.984619,16.7631999 Z M141,26 L144,26 L144,8.05349973 L141,8.05349973 L141,26 Z" id="API" fill="#FFFFFF"></path>
            <g id="Page-1">
                <path d="M53.0608475,12.51722 L55.3991765,12.51722 C55.7075737,12.51722 55.9048216,12.66318 55.9904009,12.95466 L58.642361,22.08966 L58.6937805,22.08966 L61.4692752,12.95466 C61.5548545,12.66318 61.7519027,12.51722 62.0606195,12.51722 L64.7591248,12.51722 C64.953576,12.51722 65.2401988,12.59674 65.3499497,12.95466 L68.1514938,22.08966 L68.2027535,22.08966 L70.9102082,12.95466 C70.9957875,12.66318 71.1926759,12.51722 71.5013927,12.51722 L73.7113528,12.51722 C73.9563046,12.51722 74.4690613,12.7533 74.2688968,13.3375 L70.0789861,25.4865 C69.9934068,25.79526 69.7877288,25.9497 69.4620719,25.9497 L66.9690848,25.9497 C66.6815431,25.9497 66.4082646,25.73754 66.3268404,25.4865 L63.3967676,16.45446 L63.3456677,16.45446 L60.4286595,25.53018 C60.3529485,25.76334 60.1042811,25.9497 59.8244103,25.9497 L57.3315831,25.9497 C57.0058063,25.9497 56.8004479,25.79526 56.7148686,25.4865 L52.469663,13.34078 C52.323435,12.91998 52.6446172,12.51722 53.0608475,12.51722" id="Fill-1" fill="#FFFFFF"></path>
                <path d="M79.1899713,13.263548 C79.1899713,12.839988 78.8172898,12.517228 78.4443286,12.517228 L76.541647,12.517228 C76.1237786,12.517228 75.7965236,12.869988 75.7965236,13.263548 L75.7965236,25.203108 C75.7965236,25.572508 76.0904978,25.949628 76.541647,25.949628 L78.4443286,25.949628 C78.867231,25.949628 79.1899713,25.579988 79.1899713,25.203108 L79.1899713,13.263548 Z" id="Fill-3" fill="#FFFFFF"></path>
                <path d="M89.2382458,16.135972 C89.0496277,16.135972 88.7555737,16.166652 88.5952823,15.771852 C88.4159732,15.346652 87.9764902,14.730932 86.6672306,14.730932 C85.4894162,14.730932 84.6365396,15.290052 84.6365396,16.199972 C84.6365396,17.430012 86.4331859,17.473172 88.2764174,17.968772 C90.2178533,18.490812 92.2109485,19.355132 92.2109485,21.972652 C92.2109485,24.133812 90.5534585,26.328732 86.524878,26.328732 C81.5973152,26.328732 80.9727699,23.106652 80.9727699,22.665012 C80.9727699,22.060012 81.3842458,21.934972 81.7293598,21.934972 L83.6057922,21.934972 C83.8513434,21.934972 84.2009321,22.070012 84.3003751,22.399212 C84.4056512,22.747932 84.8734609,23.585452 86.6140531,23.585452 C87.5819544,23.585452 88.8247323,23.300012 88.8247323,22.299052 C88.8247323,20.955852 87.1934115,20.704572 85.4430707,20.318892 C83.4155361,19.872132 81.2281495,19.386652 81.2281495,16.373492 C81.2281495,13.960012 83.1222012,12.009852 86.5131318,12.009852 C90.7732,12.009852 91.6220813,14.975172 91.6546031,15.181772 C91.7220837,15.610012 91.5273128,16.135972 90.9348898,16.135972 L89.2382458,16.135972 Z" id="Fill-5" fill="#FFFFFF"></path>
                <g id="Group-9" transform="translate(92.371328, 7.360000)">
                    <mask id="mask-2" fill="white">
                        <use xlink:href="#path-1"></use>
                    </mask>
                    <g id="Clip-8"></g>
                    <path d="M0.0202202115,7.287456 L0.0202202115,5.891216 C0.0202202115,5.557816 0.282991069,5.157216 0.748763102,5.157216 L2.54664794,5.157216 L2.54664794,1.593736 C2.54664794,1.226816 2.79515558,1.003416 2.9834141,0.921256 L4.90387474,0.082696 C5.46493467,-0.148104 5.91932009,0.314376 5.91932009,0.760456 L5.91932009,5.157216 L8.89517908,5.157216 C9.35463854,5.157216 9.62867615,5.559016 9.62867615,5.891216 L9.62867615,7.289576 C9.62867615,7.694376 9.2667819,8.025296 8.89537885,8.025296 L5.91932009,8.025296 L5.91932009,14.359776 C5.91932009,15.773296 6.74083361,15.882456 7.43561622,15.882456 C7.6347819,15.882456 7.81265264,15.848976 7.96287591,15.798016 C8.40347756,15.647096 8.73281011,15.904696 8.84463854,16.121376 C9.06426016,16.546296 9.31556451,17.013336 9.49131774,17.348016 C9.68485006,17.715776 9.52915323,18.186896 9.17552926,18.358616 C8.60460094,18.636336 7.84968907,18.861216 6.7654047,18.861216 C5.48686886,18.861216 4.39878895,18.655216 3.46380893,17.719136 C2.73115088,16.985616 2.54664794,15.659976 2.54664794,13.889216 L2.54664794,8.025296 L0.753517509,8.025296 C0.282991069,8.025296 0.0202202115,7.617696 0.0202202115,7.287456" id="Fill-7" fill="#FFFFFF" mask="url(#mask-2)"></path>
                </g>
                <path d="M42.0587311,14.628628 L42.0587311,13.251188 C42.0587311,12.917788 42.321502,12.517228 42.787274,12.517228 L44.5851589,12.517228 L44.5851589,8.953748 C44.5851589,8.586828 44.8336665,8.363428 45.021925,8.281228 C45.1333939,8.232628 46.7380261,7.531908 46.7380261,7.531908 C46.9423857,7.442708 47.0671189,7.381428 47.248945,7.381428 C47.6439603,7.381428 47.9577911,7.752228 47.9577911,8.120468 L47.9577911,12.517228 L50.93369,12.517228 C51.3931495,12.517228 51.6671871,12.919028 51.6671871,13.251188 L51.6671871,14.630748 C51.6671871,15.035588 51.3052928,15.366508 50.9338498,15.366508 L47.9577911,15.366508 L47.9577911,21.159468 C47.9577911,21.834588 47.939133,22.362508 48.1964303,22.752148 C48.4327922,23.109708 48.7793445,23.242468 49.4741271,23.242468 C49.6732529,23.242468 49.8511636,23.208988 50.0013469,23.157988 C50.4419885,23.007108 50.771321,23.264668 50.8831495,23.481348 C51.1027311,23.906268 51.3540355,24.373348 51.5298287,24.707988 C51.723361,25.075788 51.5676642,25.546908 51.2140402,25.718628 C50.6431119,25.996308 49.8480073,26.221308 48.8691589,26.221308 C47.7638193,26.221308 46.5209615,26.094308 45.5620895,25.134348 C44.8129709,24.384308 44.5851589,23.359988 44.5851589,21.249228 L44.5851589,15.366508 L42.7920284,15.366508 C42.321502,15.366508 42.0587311,14.958868 42.0587311,14.628628" id="Fill-10" fill="#FFFFFF"></path>
                <path d="M77.5020531,9.801636 C76.4900038,9.801636 75.3300484,9.199996 75.3300484,7.772076 C75.3300484,6.344156 76.4858886,5.742516 77.5020531,5.742516 C78.3710308,5.742516 79.6740978,6.344156 79.6740978,7.772076 C79.6740978,9.199996 78.5141025,9.801636 77.5020531,9.801636" id="Fill-12" fill="#FFFFFF"></path>
                <g id="Group-16">
                    <mask id="mask-4" fill="white">
                        <use xlink:href="#path-3"></use>
                    </mask>
                    <g id="Clip-15"></g>
                    <path d="M23.9717859,16.727848 C23.9717859,17.169168 23.744733,17.579328 23.3709328,17.813248 L20.5250808,19.594168 L19.4278917,23.434968 C19.4056778,23.512728 19.3492642,23.553848 19.2759504,23.553848 C19.255894,23.553848 19.2213347,23.548688 19.1835791,23.522608 L16.8379387,21.901568 L11.7203194,25.104088 C11.4011349,25.303848 10.987062,25.110568 10.987062,24.697208 L10.987062,18.732088 C10.987062,18.275008 11.165572,17.890248 11.6260703,17.624048 C12.0865685,17.357888 23.1736049,10.950528 23.2181126,10.924608 C23.2856331,10.885328 23.3627824,10.838448 23.5114874,10.838448 C23.7717412,10.838448 23.9717859,11.027728 23.9717859,11.387608 L23.9717859,16.727848 Z M7.83389166,15.548648 L7.83389166,18.113648 C7.83389166,18.133288 7.81994806,18.150168 7.80073067,18.153888 C7.80073067,18.153888 5.2184087,18.638408 4.78631704,18.722448 C4.35422538,18.806528 3.99528766,18.521448 3.99528766,18.078488 L3.99528766,12.282048 C3.99528766,11.770328 4.25486228,11.435288 4.69258731,11.382648 L17.4266461,9.971608 C17.5113065,9.962768 17.5938094,9.951008 17.6949304,9.951008 C17.9024863,9.951008 17.9788364,10.129408 17.9788364,10.360688 L17.9788364,11.486208 C17.9684486,11.500328 17.9610973,11.510328 17.9507095,11.524408 L8.40010552,14.490008 C7.91299859,14.662408 7.83389166,14.961128 7.83389166,15.548648 L7.83389166,15.548648 Z M27.9670855,8e-06 L3.99528766,8e-06 C1.78876357,8e-06 -1.19858989e-05,1.790848 -1.19858989e-05,4.000008 L-1.19858989e-05,5.999888 C-1.19858989e-05,5.999888 9.62746157,8.696088 9.76917485,8.732408 C9.92151563,8.771528 9.98823713,8.817568 9.98823713,8.892568 C9.98823713,8.994448 9.94145217,8.999888 9.85838989,8.999888 L-1.19858989e-05,8.999888 L-1.19858989e-05,28.000008 C-1.19858989e-05,30.209128 1.78876357,32.000008 3.99528766,32.000008 L27.9670855,32.000008 C30.1736496,32.000008 31.9623852,30.209128 31.9623852,28.000008 L31.9623852,4.000008 C31.9623852,1.790848 30.1736496,8e-06 27.9670855,8e-06 L27.9670855,8e-06 Z" id="Fill-14" fill="#FFFFFF" mask="url(#mask-4)"></path>
                </g>
            </g>
        </g>
    </g>
</svg>