<?xml version="1.0" encoding="UTF-8"?>
<svg width="667px" height="100px" viewBox="0 0 667 100" version="1.1" xmlns="http://www.w3.org/2000/svg" xmlns:xlink="http://www.w3.org/1999/xlink">
    <!-- Generator: Sketch 44.1 (41455) - http://www.bohemiancoding.com/sketch -->
    <title>Todoist_Developer</title>
    <desc>Created with Sketch.</desc>
    <defs>
        <polygon id="path-1" points="30.125 0.0665846209 30.125 58.9414375 0.0632625 58.9414375 0.0632625 0.0665846209"></polygon>
    </defs>
    <g id="Page-1" stroke="none" stroke-width="1" fill="none" fill-rule="evenodd">
        <g id="Todoist_Developer">
            <g id="Group-2">
                <g id="TW_Logo-Lockup">
                    <g id="TW_Wordmark" transform="translate(131.250000, 15.625000)">
                        <path d="M34.760225,23.4913375 L42.0761,23.4913375 C43.040975,23.4913375 43.6581,23.9475875 43.92585,24.8583375 L52.222975,53.4052125 L52.38385,53.4052125 L61.067475,24.8583375 C61.335225,23.9475875 61.951725,23.4913375 62.9176,23.4913375 L71.36035,23.4913375 C71.968725,23.4913375 72.865475,23.7399625 73.20885,24.8583375 L81.973975,53.4052125 L82.13435,53.4052125 L90.6051,24.8583375 C90.87285,23.9475875 91.48885,23.4913375 92.454725,23.4913375 L99.368975,23.4913375 C100.13535,23.4913375 101.7396,24.2292125 101.11335,26.0547125 L88.004475,64.0204625 C87.736725,64.9852125 87.093225,65.4678375 86.07435,65.4678375 L78.2746,65.4678375 C77.374975,65.4678375 76.519975,64.8048375 76.265225,64.0204625 L67.097975,35.7952125 L66.9381,35.7952125 L57.811725,64.1569625 C57.57485,64.8855875 56.79685,65.4678375 55.921225,65.4678375 L48.121975,65.4678375 C47.102725,65.4678375 46.460225,64.9852125 46.192475,64.0204625 L32.9106,26.0649625 C32.4531,24.7499625 33.457975,23.4913375 34.760225,23.4913375" id="Fill-9" fill="#316FEB" fill-rule="nonzero"></path>
                        <path d="M116.5098,25.823675 C116.5098,24.50005 115.3438,23.4913 114.176925,23.4913 L108.22405,23.4913 C106.916675,23.4913 105.8928,24.5938 105.8928,25.823675 L105.8928,63.1348 C105.8928,64.28905 106.81255,65.467675 108.22405,65.467675 L114.176925,65.467675 C115.50005,65.467675 116.5098,64.31255 116.5098,63.1348 L116.5098,25.823675 Z" id="Fill-11" fill="#316FEB" fill-rule="nonzero"></path>
                        <path d="M147.9476,34.7999875 C147.357475,34.7999875 146.437475,34.8958625 145.935975,33.6621125 C145.374975,32.3333625 143.999975,30.4092375 139.903725,30.4092375 C136.218725,30.4092375 133.55035,32.1563625 133.55035,34.9998625 C133.55035,38.8437375 139.171475,38.9786125 144.93835,40.5274875 C151.012475,42.1588625 157.248225,44.8598625 157.248225,53.0396125 C157.248225,59.7932375 152.062475,66.6523625 139.45835,66.6523625 C124.0416,66.6523625 122.0876,56.5833625 122.0876,55.2031125 C122.0876,53.3124875 123.374975,52.9218625 124.454725,52.9218625 L130.325475,52.9218625 C131.093725,52.9218625 132.187475,53.3437375 132.4986,54.3726125 C132.827975,55.4622375 134.2916,58.0796125 139.73735,58.0796125 C142.7656,58.0796125 146.65385,57.1874875 146.65385,54.0596125 C146.65385,49.8621125 141.549975,49.0767375 136.073725,47.8716125 C129.730225,46.4754875 122.8866,44.9583625 122.8866,35.5423625 C122.8866,27.9999875 128.812475,21.9058625 139.4216,21.9058625 C152.749975,21.9058625 155.40585,31.1724875 155.5076,31.8181125 C155.718725,33.1562375 155.10935,34.7999875 153.25585,34.7999875 L147.9476,34.7999875 Z" id="Fill-13" fill="#316FEB" fill-rule="nonzero"></path>
                        <g id="Group-17" transform="translate(157.750000, 7.375000)">
                            <g id="Fill-15-Clipped">
                                <mask id="mask-2" fill="white">
                                    <use xlink:href="#path-1"></use>
                                </mask>
                                <g id="path-1"></g>
                                <path d="M0.0632625,22.7733125 L0.0632625,18.4100625 C0.0632625,17.3681875 0.8853875,16.1163125 2.3426375,16.1163125 L7.9676375,16.1163125 L7.9676375,4.9804375 C7.9676375,3.8338125 8.7451375,3.1356875 9.3341375,2.8789375 L15.3426375,0.2584375 C17.0980125,-0.4626875 18.5196375,0.9824375 18.5196375,2.3764375 L18.5196375,16.1163125 L27.8301375,16.1163125 C29.2676375,16.1163125 30.1250125,17.3720625 30.1250125,18.4100625 L30.1250125,22.7799375 C30.1250125,24.0449375 28.9927625,25.0791875 27.8307625,25.0791875 L18.5196375,25.0791875 L18.5196375,44.8743125 C18.5196375,49.2916875 21.0898875,49.6326875 23.2636375,49.6326875 C23.8867625,49.6326875 24.4432625,49.5280625 24.9132625,49.3688125 C26.2917625,48.8971875 27.3221375,49.7021875 27.6720125,50.3793125 C28.3591375,51.7071875 29.1453875,53.1668125 29.6952625,54.2125625 C30.3007625,55.3619375 29.8136375,56.8341875 28.7072625,57.3708125 C26.9210125,58.2385625 24.5591375,58.9414375 21.1667625,58.9414375 C17.1666375,58.9414375 13.7623875,58.2976875 10.8371375,55.3723125 C8.5448875,53.0801875 7.9676375,48.9374375 7.9676375,43.4038125 L7.9676375,25.0791875 L2.3575125,25.0791875 C0.8853875,25.0791875 0.0632625,23.8053125 0.0632625,22.7733125" id="Fill-15" fill="#316FEB" fill-rule="nonzero" mask="url(#mask-2)"></path>
                            </g>
                        </g>
                        <path d="M0.3381625,30.0895375 L0.3381625,25.7850375 C0.3381625,24.7431625 1.1602875,23.4912875 2.6175375,23.4912875 L8.2425375,23.4912875 L8.2425375,12.3554125 C8.2425375,11.2089125 9.0200375,10.5107875 9.6090375,10.2539125 C9.9577875,10.1019125 14.9781625,7.9122875 14.9781625,7.9122875 C15.6175375,7.6335375 16.0077875,7.4420375 16.5766625,7.4420375 C17.8125375,7.4420375 18.7944125,8.6006625 18.7944125,9.7514125 L18.7944125,23.4912875 L28.1050375,23.4912875 C29.5425375,23.4912875 30.3999125,24.7470375 30.3999125,25.7850375 L30.3999125,30.0961625 C30.3999125,31.3611625 29.2676625,32.3954125 28.1055375,32.3954125 L18.7944125,32.3954125 L18.7944125,50.4984125 C18.7944125,52.6081625 18.7360375,54.2577875 19.5410375,55.4754125 C20.2805375,56.5929125 21.3647875,57.0077875 23.5385375,57.0077875 C24.1615375,57.0077875 24.7181625,56.9030375 25.1880375,56.7437875 C26.5666625,56.2721625 27.5970375,57.0771625 27.9469125,57.7542875 C28.6339125,59.0821625 29.4201625,60.5417875 29.9701625,61.5875375 C30.5756625,62.7369125 30.0885375,64.2091625 28.9821625,64.7457875 C27.1959125,65.6135375 24.7082875,66.3166625 21.6457875,66.3166625 C18.1875375,66.3166625 14.2990375,65.9197875 11.2990375,62.9199125 C8.9552875,60.5760375 8.2425375,57.3750375 8.2425375,50.7789125 L8.2425375,32.3954125 L2.6324125,32.3954125 C1.1602875,32.3954125 0.3381625,31.1215375 0.3381625,30.0895375" id="Fill-18" fill="#316FEB" fill-rule="nonzero"></path>
                        <path d="M111.22885,15.0051875 C108.062475,15.0051875 104.43335,13.1249375 104.43335,8.6628125 C104.43335,4.2005625 108.0496,2.3204375 111.22885,2.3204375 C113.9476,2.3204375 118.024475,4.2005625 118.024475,8.6628125 C118.024475,13.1249375 114.395225,15.0051875 111.22885,15.0051875" id="Fill-20" fill="#316FEB" fill-rule="nonzero"></path>
                    </g>
                    <g id="TW_Logo" fill-rule="nonzero">
                        <path d="M87.500025,0 L12.500025,0 C5.5964,0 2.5e-05,5.596375 2.5e-05,12.5 L2.5e-05,87.5 C2.5e-05,94.403625 5.5964,100 12.500025,100 L87.500025,100 C94.40365,100 100.000025,94.403625 100.000025,87.5 L100.000025,12.5 C100.000025,5.596375 94.40365,0 87.500025,0" id="Fill-1" fill="#316FEB"></path>
                        <path d="M30.5645375,27.444825 C30.1212875,27.3312 3.75e-05,19.70245 3.75e-05,19.70245 L3.75e-05,28.280575 L30.8437875,28.280575 C31.1035375,28.280575 31.2500375,28.263575 31.2500375,27.945325 C31.2500375,27.71095 31.0411625,27.56695 30.5645375,27.444825" id="Fill-3" fill="#FFFFFF"></path>
                        <path d="M21.875025,48.4375 C21.875025,46.583375 22.125025,45.640625 23.664275,45.096375 L56.160525,35.46 C56.213525,35.44425 56.250025,35.3955 56.250025,35.340125 L56.250025,32.651 C56.250025,31.854125 55.901025,31.401625 55.338525,31.401625 C55.0209,31.401625 54.3379,31.52125 54.217525,31.538375 C54.217525,31.538375 16.0089,36.94425 14.64515,37.151875 C13.281275,37.359375 12.49615,38.382 12.49615,39.627125 L12.49615,54.962 C12.49615,56.3125 13.558775,57.181625 14.87765,56.925375 C16.196525,56.669125 21.773775,55.5855 21.773775,55.5855 C21.83265,55.574125 21.875025,55.522625 21.875025,55.46275 L21.875025,48.4375 Z" id="Fill-5" fill="#FFFFFF"></path>
                        <path d="M36.36355,55.07495 C34.9223,55.907075 34.36355,57.10995 34.36355,58.539075 L34.36355,75.62445 C34.36355,76.9167 35.65955,77.52095 36.658675,76.89645 L52.676425,66.88445 L52.695425,66.89745 L52.70505,66.904075 L60.018175,71.952325 C60.136425,72.033825 60.24455,72.04995 60.3073,72.04995 C60.5368,72.04995 60.713425,71.92145 60.782925,71.678325 L64.21705,59.67095 L64.246425,59.652575 L73.125175,54.102825 C74.294675,53.371825 75.00505,52.090075 75.00505,50.71095 L75.00505,35.578075 C75.00505,34.453075 74.378925,33.861325 73.5643,33.861325 C73.098925,33.861325 72.857425,34.007825 72.646175,34.1307 C72.5068,34.211825 37.804925,54.242825 36.36355,55.07495" id="Fill-7" fill="#FFFFFF"></path>
                    </g>
                </g>
                <g id="Group" transform="translate(348.000000, 26.000000)" fill="#B3B5B8">
                    <path d="M15.446,46.8199 C26.647,46.8199 32.038,40.3789 32.038,29.3179 L32.038,28.7579 C32.038,17.9759 27.137,11.4659 15.377,11.4659 L9.986,11.4659 L9.986,46.8199 L15.446,46.8199 Z M0.675,4.1149 L15.867,4.1149 C33.299,4.1149 41.769,14.0559 41.769,28.6169 L41.769,29.2479 C41.769,43.8079 33.299,54.1699 15.726,54.1699 L0.675,54.1699 L0.675,4.1149 Z" id="Fill-19"></path>
                    <path d="M72.4968,32.0484 C72.0758,25.7474 68.8558,22.9464 63.6048,22.9464 C58.4948,22.9464 55.0638,26.3764 54.2248,32.0484 L72.4968,32.0484 Z M45.4028,36.2474 L45.4028,35.6874 C45.4028,24.3474 53.1748,16.7864 63.6048,16.7864 C72.7068,16.7864 80.8968,22.1774 80.8968,35.2674 L80.8968,37.7184 L54.0848,37.7184 C54.3638,44.6484 57.8648,48.5694 64.1658,48.5694 C69.2758,48.5694 71.9358,46.5384 72.5658,42.9684 L80.7578,42.9684 C79.5668,50.6694 73.3368,54.8704 63.9558,54.8704 C53.1748,54.8704 45.4028,47.7984 45.4028,36.2474 L45.4028,36.2474 Z" id="Fill-21"></path>
                    <polygon id="Fill-23" points="81.8727 17.5563 90.9747 17.5563 100.5647 45.4903 110.0167 17.5563 118.3477 17.5563 105.1157 54.1693 95.2447 54.1693"></polygon>
                    <path d="M145.7858,32.0484 C145.3658,25.7474 142.1458,22.9464 136.8948,22.9464 C131.7848,22.9464 128.3538,26.3764 127.5148,32.0484 L145.7858,32.0484 Z M118.6928,36.2474 L118.6928,35.6874 C118.6928,24.3474 126.4648,16.7864 136.8948,16.7864 C145.9968,16.7864 154.1868,22.1774 154.1868,35.2674 L154.1868,37.7184 L127.3748,37.7184 C127.6538,44.6484 131.1548,48.5694 137.4558,48.5694 C142.5658,48.5694 145.2258,46.5384 145.8558,42.9684 L154.0478,42.9684 C152.8568,50.6694 146.6268,54.8704 137.2458,54.8704 C126.4648,54.8704 118.6928,47.7984 118.6928,36.2474 L118.6928,36.2474 Z" id="Fill-25"></path>
                    <polygon id="Fill-27" points="159.853 54.17 168.324 54.17 168.324 0.615 159.853 0.615"></polygon>
                    <path d="M202.9753,36.109 L202.9753,35.619 C202.9753,28.058 199.1953,23.437 192.8943,23.437 C186.5943,23.437 182.7443,27.988 182.7443,35.548 L182.7443,36.109 C182.7443,43.599 186.4543,48.289 192.8943,48.289 C199.1953,48.289 202.9753,43.599 202.9753,36.109 M174.0623,36.248 L174.0623,35.687 C174.0623,24.347 182.1143,16.787 192.8943,16.787 C203.6063,16.787 211.6573,24.277 211.6573,35.478 L211.6573,36.039 C211.6573,47.449 203.6063,54.871 192.8253,54.871 C182.0433,54.871 174.0623,47.379 174.0623,36.248" id="Fill-29"></path>
                    <path d="M245.1843,36.109 L245.1843,35.548 C245.1843,27.427 240.9843,23.437 235.4543,23.437 C229.5733,23.437 225.3723,27.427 225.3723,35.548 L225.3723,36.109 C225.3723,44.298 229.3633,48.15 235.5243,48.15 C241.7543,48.15 245.1843,43.949 245.1843,36.109 L245.1843,36.109 Z M217.1823,17.556 L225.6533,17.556 L225.6533,23.437 C227.6833,19.937 232.2333,16.787 237.6233,16.787 C246.7943,16.787 253.8663,23.578 253.8663,35.408 L253.8663,35.968 C253.8663,47.73 247.0753,54.871 237.6233,54.871 C231.8133,54.871 227.6133,52 225.6533,48.429 L225.6533,66.701 L217.1823,66.701 L217.1823,17.556 Z" id="Fill-30"></path>
                    <path d="M284.0339,32.0484 C283.6139,25.7474 280.3939,22.9464 275.1429,22.9464 C270.0329,22.9464 266.6019,26.3764 265.7629,32.0484 L284.0339,32.0484 Z M256.9409,36.2474 L256.9409,35.6874 C256.9409,24.3474 264.7129,16.7864 275.1429,16.7864 C284.2449,16.7864 292.4349,22.1774 292.4349,35.2674 L292.4349,37.7184 L265.6229,37.7184 C265.9019,44.6484 269.4029,48.5694 275.7039,48.5694 C280.8139,48.5694 283.4739,46.5384 284.1039,42.9684 L292.2959,42.9684 C291.1049,50.6694 284.8749,54.8704 275.4939,54.8704 C264.7129,54.8704 256.9409,47.7984 256.9409,36.2474 L256.9409,36.2474 Z" id="Fill-31"></path>
                    <path d="M297.8913,17.5563 L306.3623,17.5563 L306.3623,24.4173 C308.6713,19.7963 312.1023,17.0663 318.2633,16.9953 L318.2633,24.9083 C310.8423,24.9763 306.3623,27.3573 306.3623,35.1283 L306.3623,54.1693 L297.8913,54.1693 L297.8913,17.5563 Z" id="Fill-32"></path>
                </g>
            </g>
        </g>
    </g>
</svg>